<?xml version="1.0" encoding="UTF-8"?>
<svg version="1.1" xmlns="http://www.w3.org/2000/svg" width="632" height="411">
<path d="M0 0 C208.56 0 417.12 0 632 0 C632 135.63 632 271.26 632 411 C423.44 411 214.88 411 0 411 C0 275.37 0 139.74 0 0 Z " fill="#FEFEFE" transform="translate(0,0)"/>
<path d="M0 0 C0.45785889 0.35626465 0.91571777 0.7125293 1.38745117 1.07958984 C6.83871325 5.25206063 12.50240521 8.97424996 18.3125 12.625 C19.76100342 13.54067749 19.76100342 13.54067749 21.23876953 14.47485352 C23.21670869 15.72473583 25.19554529 16.97319911 27.17529297 18.22021484 C29.72477511 19.82658691 32.27135346 21.43740433 34.81640625 23.05078125 C44.55162335 29.21846011 54.32103663 35.3307811 64.09716797 41.43334961 C71.00476246 45.74715064 77.89596184 50.08595184 84.77734375 54.44140625 C91.17039752 58.48423115 97.58339613 62.4946798 104 66.5 C111.94092963 71.45682241 119.86756829 76.43504751 127.77734375 81.44140625 C134.17039781 85.48423133 140.58342346 89.49463562 147 93.5 C158.1161299 100.439778 169.19988483 107.42949306 180.27246094 114.43847656 C189.8306466 120.48749522 199.40505489 126.50942878 209 132.5 C224.16912052 141.97555518 224.16912052 141.97555518 231.5625 146.625 C232.69461914 147.33366211 232.69461914 147.33366211 233.84960938 148.05664062 C234.56052734 148.50458984 235.27144531 148.95253906 236.00390625 149.4140625 C236.61049072 149.7951416 237.2170752 150.1762207 237.84204102 150.56884766 C238.55416748 151.04112793 239.26629395 151.5134082 240 152 C240.88237587 152.38997414 240.88237587 152.38997414 241.78257751 152.78782654 C244.06035488 153.98242207 245.40857089 154.96290442 247 157 C248.0021108 161.60695771 247.81322453 166.13715682 247.68359375 170.83203125 C247.67052749 172.19249418 247.66056816 173.5529902 247.65357971 174.91349792 C247.62693241 178.48346924 247.55824704 182.05142655 247.48065186 185.62060547 C247.40886572 189.26697544 247.37703594 192.91367299 247.34179688 196.56054688 C247.26686677 203.70785207 247.14749863 210.85379412 247 218 C243.40131046 217.07559076 239.80406985 216.14565455 236.20703125 215.21484375 C235.20482544 214.95747437 234.20261963 214.70010498 233.17004395 214.43493652 C226.28499855 212.64961697 219.47728832 210.68036941 212.6875 208.5625 C211.63006592 208.23515869 210.57263184 207.90781738 209.4831543 207.57055664 C208.64695557 207.31137451 207.81075684 207.05219238 206.94921875 206.78515625 C200.67240993 204.87127832 194.34358593 203.1767704 188 201.5 C178.82330318 199.07324491 169.74095907 196.43926887 160.67700195 193.62280273 C153.55658722 191.42856869 146.39147659 189.46260926 139.1875 187.5625 C130.43620252 185.24964782 121.76542293 182.76029829 113.125 180.0625 C94.02717505 174.10172927 74.78150121 168.71726455 55.44848633 163.57617188 C48.31748752 161.6645569 41.24344138 159.60915533 34.1875 157.4375 C33.2382666 157.14609131 32.2890332 156.85468262 31.31103516 156.55444336 C29.43809871 155.97901146 27.56521363 155.40341231 25.69238281 154.82763672 C24.80389648 154.5545166 23.91541016 154.28139648 23 154 C22.16823242 153.7436377 21.33646484 153.48727539 20.47949219 153.22314453 C4.61703686 148.37610798 -11.51958843 144.889866 -27.73675537 141.47650146 C-30.05864577 140.98765277 -32.38018998 140.4971878 -34.70166016 140.00634766 C-41.15942235 138.6415093 -47.61735876 137.27761457 -54.07836914 135.92822266 C-61.51108874 134.37493145 -68.93842587 132.80462679 -76.3515625 131.16015625 C-77.62999023 130.87857666 -78.90841797 130.59699707 -80.22558594 130.30688477 C-82.57675665 129.78704136 -84.92650176 129.26068593 -87.27441406 128.72631836 C-88.3156543 128.4969458 -89.35689453 128.26757324 -90.4296875 128.03125 C-91.31897949 127.83080078 -92.20827148 127.63035156 -93.12451172 127.42382812 C-100.29375367 126.36712885 -106.15933932 127.28001551 -113.02709961 129.26318359 C-113.89163254 129.50381027 -114.75616547 129.74443695 -115.64689636 129.99235535 C-118.48484651 130.78474894 -121.31847784 131.59157147 -124.15234375 132.3984375 C-126.13689894 132.95512476 -128.12173148 133.51082411 -130.10682678 134.06558228 C-135.32220311 135.52558752 -140.53412933 136.99753805 -145.74530029 138.47247314 C-154.08050894 140.82907685 -162.4212821 143.16594158 -170.76123238 145.50569534 C-173.66289417 146.32133479 -176.56336001 147.14111009 -179.46360779 147.96176147 C-181.25689593 148.46722323 -183.05019473 148.97264715 -184.84350586 149.47802734 C-186.0384668 149.81789421 -186.0384668 149.81789421 -187.25756836 150.16462708 C-192.48902778 151.63522903 -197.67713492 152.81714109 -203 154 C-203 134.86 -203 115.72 -203 96 C-194.243148 91.621574 -185.51464111 87.32868149 -176.625 83.25 C-164.87914851 77.82809433 -153.18153955 72.30901566 -141.5 66.75 C-139.78988776 65.93649934 -138.07976403 65.12302286 -136.36962891 64.30957031 C-133.79362898 63.08421231 -131.21763395 61.85884405 -128.64169312 60.63336182 C-119.76616134 56.41160015 -110.88565646 52.20041 -102 48 C-101.25329041 47.64693787 -100.50658081 47.29387573 -99.73724365 46.93011475 C-89.41750757 42.05348327 -79.06409944 37.25965481 -68.67480469 32.53271484 C-62.73065591 29.81989985 -56.88156856 26.96494189 -51.05859375 24 C-44.00205871 20.47267461 -36.80092779 17.23748428 -29.640625 13.92749023 C-19.73095733 9.34620257 -9.85526959 4.6970312 0 0 Z " fill="#1C663C" transform="translate(338,12)"/>
<path d="M0 0 C1.54913338 0.39760277 1.54913338 0.39760277 3.12956238 0.80323792 C4.01001724 1.06225388 4.89047211 1.32126984 5.79760742 1.58813477 C6.81533737 1.88506729 7.83306732 2.18199982 8.88163757 2.4879303 C10.47743401 2.95990089 10.47743401 2.95990089 12.10546875 3.44140625 C14.41080614 4.11393624 16.71614472 4.78646217 19.02148438 5.45898438 C22.61617936 6.51329367 26.21039253 7.56922946 29.80444336 8.62573242 C33.2994815 9.65155623 36.79615284 10.67166201 40.29296875 11.69140625 C41.36290573 12.00807755 42.43284271 12.32474884 43.53520203 12.65101624 C47.61768318 13.84052765 51.51417695 14.93239479 55.73168945 15.51928711 C58.91099975 15.98690958 61.56241767 16.91869532 64.53814697 18.09640503 C70.28201827 20.20462723 76.23441226 21.73560052 82.1171875 23.41015625 C83.65236058 23.84983108 85.18744311 24.28982217 86.72244263 24.73010254 C90.03124831 25.67856185 93.34059977 26.62508324 96.65039062 27.57009888 C101.95282015 29.08419257 107.25390262 30.60296248 112.5546875 32.12280273 C113.45892582 32.38205819 114.36316414 32.64131365 115.29480362 32.90842533 C117.14899663 33.44005717 119.00318487 33.97170564 120.85736847 34.50337029 C123.70884576 35.32085937 126.56043672 36.13795094 129.41204834 36.95497131 C149.98515533 42.85040919 170.54695441 48.78491368 191.10680008 54.72640991 C193.99572527 55.56126467 196.88468648 56.39599469 199.77365112 57.23071289 C222.00110937 63.65342319 244.22605176 70.08460364 266.4375 76.5625 C267.42049072 76.84908478 268.40348145 77.13566956 269.41625977 77.43093872 C272.0681136 78.20443414 274.71968726 78.97887898 277.37109375 79.75390625 C278.11942978 79.97232178 278.86776581 80.1907373 279.63877869 80.41577148 C282.44200749 81.23664751 285.22861317 82.07620439 288 83 C288 96.53 288 110.06 288 124 C262.93936725 121.24944275 237.90150381 118.35504616 212.87097168 115.34503174 C207.90630903 114.74838141 202.941421 114.15361175 197.9765625 113.55859375 C184.24810087 111.91286419 170.5200442 110.26376634 156.79199219 108.61462402 C149.36135704 107.72200851 141.93069776 106.82959422 134.5 105.9375 C132.93487671 105.74959396 132.93487671 105.74959396 131.33813477 105.55789185 C115.53903549 103.6614058 99.73870887 101.77545048 83.93725586 99.89868164 C74.36470341 98.76114759 64.79321279 97.61514962 55.22265625 96.4609375 C53.01237084 96.19465276 50.80208438 95.92837671 48.59179688 95.66210938 C43.46819434 95.04482156 38.34480968 94.42576709 33.22181892 93.80342102 C31.25161358 93.5677317 29.28072156 93.33765105 27.30894279 93.11550903 C22.16826007 92.53228213 17.06769983 91.8648621 11.96524048 91.00720215 C-5.31813889 88.29810242 -20.00555537 90.15621491 -36.91496706 94.12953281 C-40.42706883 94.94448423 -43.95030696 95.70847552 -47.47238159 96.47894287 C-53.46602888 97.7968106 -59.45234736 99.14416532 -65.43435669 100.51385498 C-73.97157442 102.46838563 -82.51902694 104.37452103 -91.07009828 106.26741242 C-103.50753455 109.0209991 -115.93949015 111.79813723 -128.36682189 114.5969522 C-150.52094405 119.58555885 -172.71192911 124.39749493 -194.91543579 129.16131592 C-200.47416393 130.35468511 -206.03057866 131.55858398 -211.58666992 132.76416016 C-214.090014 133.30645289 -216.59340947 133.84850747 -219.09683609 134.39041901 C-220.63863394 134.72449381 -222.18030206 135.059168 -223.72182846 135.3944931 C-225.78102432 135.84220959 -227.84074741 136.28741131 -229.90063477 136.73193359 C-231.04025162 136.97898041 -232.17986847 137.22602722 -233.35401917 137.4805603 C-236 138 -236 138 -238 138 C-238 110.61 -238 83.22 -238 55 C-209.12970564 47.68316972 -180.2556857 40.38159611 -151.37309567 33.11347993 C-147.96109218 32.25485107 -144.54913523 31.39603737 -141.13720703 30.53710938 C-140.45796997 30.36611971 -139.7787329 30.19513005 -139.0789129 30.01895888 C-128.0895652 27.25205593 -117.10405423 24.47020581 -106.11989494 21.68278615 C-94.84400081 18.82168923 -83.56404434 15.97707448 -72.28039873 13.14670146 C-65.94476688 11.55692841 -59.61121031 9.95976016 -53.28197098 8.34470749 C-47.3226944 6.82430994 -41.3587308 5.32393829 -35.39060593 3.83866692 C-33.20307564 3.29054794 -31.01734541 2.73518533 -28.83364868 2.17198753 C-25.84641705 1.40271403 -22.85373604 0.66003109 -19.85830688 -0.0765686 C-19.00029909 -0.30417834 -18.14229129 -0.53178807 -17.25828326 -0.76629508 C-11.02518958 -2.25597119 -6.1499113 -1.67192466 0 0 Z " fill="#64A87F" transform="translate(249,168)"/>
<path d="M0 0 C2.12344279 0.27466521 4.24692307 0.54904079 6.37043762 0.82315063 C12.10156397 1.56383304 17.83213748 2.30871242 23.56260037 3.05450821 C29.56887573 3.83560197 35.57559993 4.61322976 41.58226013 5.39135742 C51.65703403 6.69703272 61.73145526 8.00540188 71.80566406 9.31542969 C83.45642032 10.83043858 95.10770104 12.34136032 106.75927407 13.85007381 C117.97810402 15.30283144 129.19658508 16.7582659 140.41489983 18.21499634 C145.18703427 18.83463549 149.95928505 19.4533674 154.73163033 20.07138062 C160.34210253 20.79806749 165.95226449 21.52710401 171.56219292 22.25797653 C173.6228775 22.52606613 175.68366737 22.79334785 177.74456787 23.05977249 C180.5519306 23.42283391 183.35890019 23.78879564 186.16578674 24.15551758 C186.98571265 24.26086917 187.80563856 24.36622076 188.65041071 24.47476482 C192.09890614 24.92812286 195.37914176 25.48693632 198.75952148 26.33203125 C198.75952148 44.81203125 198.75952148 63.29203125 198.75952148 82.33203125 C35.73952148 82.33203125 -127.28047852 82.33203125 -295.24047852 82.33203125 C-295.24047852 60.88203125 -295.24047852 39.43203125 -295.24047852 17.33203125 C-270.51258056 15.33174033 -245.78464951 13.33185974 -221.05666256 11.33266926 C-209.56705154 10.40375319 -198.07745451 9.47466489 -186.58789062 8.54516602 C-183.22679772 8.27327715 -179.86570437 8.00139375 -176.50461078 7.72951341 C-174.27683903 7.54929839 -172.0490687 7.36906589 -169.82129979 7.18881583 C-157.76660076 6.21349081 -145.71177795 5.23974954 -133.65658569 4.27053833 C-129.42136206 3.92992425 -125.18614416 3.58923882 -120.95092773 3.24853516 C-119.92535979 3.16606608 -118.89979185 3.083597 -117.84314609 2.99862885 C-105.86437318 2.03491315 -93.88684063 1.05822345 -81.91129589 0.05516911 C-76.67535579 -0.3833825 -71.43891484 -0.81578618 -66.20230323 -1.24623924 C-62.88373913 -1.51951159 -59.56575347 -1.79759463 -56.2481823 -2.08279991 C-52.72360168 -2.38572297 -49.19820659 -2.67631921 -45.67236328 -2.96411133 C-44.19677917 -3.09626887 -44.19677917 -3.09626887 -42.69138527 -3.23109627 C-28.39097495 -4.36143036 -14.15294998 -1.847392 0 0 Z " fill="#64A87F" transform="translate(422.240478515625,307.66796875)"/>
<path d="M0 0 C23.4375 6.75 23.4375 6.75 30.72045898 8.85449219 C44.11931119 12.70886551 44.11931119 12.70886551 57.66015625 16.015625 C65.12476797 17.68559189 72.38908496 19.87608838 79.69342041 22.13853455 C87.27859706 24.48634011 94.88799114 26.73346988 102.51953125 28.92578125 C103.72053467 29.27090256 104.92153809 29.61602386 106.15893555 29.97160339 C108.70468735 30.70224996 111.25057122 31.4324156 113.79669189 32.16177368 C120.20545765 33.99768523 126.61237733 35.84002709 133.01956177 37.68144798 C135.3504031 38.35127474 137.68130248 39.02089924 140.01220703 39.69050598 C160.38874994 45.54504012 180.75700108 51.42832322 201.125 57.3125 C202.57600727 57.73165932 202.57600727 57.73165932 204.05632782 58.1592865 C227.52310303 64.93842051 250.98824622 71.72295824 274.4375 78.5625 C275.9100827 78.99183334 275.9100827 78.99183334 277.41241455 79.42984009 C280.06554869 80.20370656 282.71840414 80.97851754 285.37109375 81.75390625 C286.11950027 81.97234192 286.8679068 82.19077759 287.63899231 82.41583252 C290.44214939 83.23668963 293.22868351 84.07622784 296 85 C296 98.53 296 112.06 296 126 C270.93936725 123.24944275 245.90150381 120.35504616 220.87097168 117.34503174 C215.90630903 116.74838141 210.941421 116.15361175 205.9765625 115.55859375 C192.24810087 113.91286419 178.5200442 112.26376634 164.79199219 110.61462402 C157.36135704 109.72200851 149.93069776 108.82959422 142.5 107.9375 C141.45658447 107.81222931 140.41316895 107.68695862 139.33813477 107.55789185 C124.38346991 105.76276968 109.4277528 103.97668793 94.47094727 102.19949341 C84.04228832 100.96027927 73.61440193 99.71485669 63.1875 98.4609375 C62.09091064 98.32911072 60.99432129 98.19728394 59.86450195 98.0614624 C54.55149378 97.42267129 49.23856781 96.78320969 43.92578125 96.14257812 C29.28865913 94.38168505 14.64597286 92.68991994 0 91 C0 60.97 0 30.94 0 0 Z " fill="#1C663C" transform="translate(241,166)"/>
<path d="M0 0 C2.31484623 3.47226934 2.23814513 4.73712506 2.20254517 8.82756042 C2.19688034 10.0433226 2.19121552 11.25908478 2.18537903 12.51168823 C2.1688575 13.86090318 2.15214262 15.21011577 2.13525391 16.55932617 C2.12482883 17.97846374 2.11529341 19.39760808 2.10658264 20.8167572 C2.08039117 24.67194339 2.04172524 28.52691632 2.00085878 32.38197112 C1.96026916 36.40980832 1.9310972 40.43772759 1.90072632 44.46565247 C1.84146492 52.09423618 1.77190025 59.72268994 1.69865549 67.35115081 C1.61577369 76.03539312 1.54434495 84.71971772 1.47388959 93.40406835 C1.32869172 111.26950068 1.16907406 129.13477848 1 147 C-3.17010433 146.19842601 -7.34018147 145.39671062 -11.51025391 144.5949707 C-12.68467545 144.36922615 -13.85909698 144.1434816 -15.06910706 143.9108963 C-38.7050994 139.36635067 -62.23566113 134.49145418 -85.71073914 129.17980957 C-87.47285726 128.7822212 -89.23637717 128.39085969 -91 128 C-92.21610962 127.70186401 -92.21610962 127.70186401 -93.45678711 127.39770508 C-100.46642542 126.30154488 -106.31506303 127.32498306 -113.02709961 129.26318359 C-113.89163254 129.50381027 -114.75616547 129.74443695 -115.64689636 129.99235535 C-118.48484651 130.78474894 -121.31847784 131.59157147 -124.15234375 132.3984375 C-126.13689894 132.95512476 -128.12173148 133.51082411 -130.10682678 134.06558228 C-135.32220311 135.52558752 -140.53412933 136.99753805 -145.74530029 138.47247314 C-154.08050894 140.82907685 -162.4212821 143.16594158 -170.76123238 145.50569534 C-173.66289417 146.32133479 -176.56336001 147.14111009 -179.46360779 147.96176147 C-181.25689593 148.46722323 -183.05019473 148.97264715 -184.84350586 149.47802734 C-186.0384668 149.81789421 -186.0384668 149.81789421 -187.25756836 150.16462708 C-192.48902778 151.63522903 -197.67713492 152.81714109 -203 154 C-203 134.86 -203 115.72 -203 96 C-194.243148 91.621574 -185.51464111 87.32868149 -176.625 83.25 C-164.87914851 77.82809433 -153.18153955 72.30901566 -141.5 66.75 C-139.78988776 65.93649934 -138.07976403 65.12302286 -136.36962891 64.30957031 C-133.79362898 63.08421231 -131.21763395 61.85884405 -128.64169312 60.63336182 C-119.76616134 56.41160015 -110.88565646 52.20041 -102 48 C-101.25329041 47.64693787 -100.50658081 47.29387573 -99.73724365 46.93011475 C-89.41750757 42.05348327 -79.06409944 37.25965481 -68.67480469 32.53271484 C-62.73065591 29.81989985 -56.88156856 26.96494189 -51.05859375 24 C-44.00205871 20.47267461 -36.80092779 17.23748428 -29.640625 13.92749023 C-19.73095733 9.34620257 -9.85526959 4.6970312 0 0 Z " fill="#64A87F" transform="translate(338,12)"/>
<path d="M0 0 C15.76584091 1.81913549 31.51294978 3.66014968 47.24755859 5.71142578 C49.21530235 5.96655069 51.18306629 6.22151992 53.15084839 6.47634888 C58.39757013 7.15630007 63.64399044 7.83854902 68.89033461 8.52140665 C73.29019259 9.09386418 77.69020233 9.66515058 82.09021056 10.23645198 C92.45733192 11.58254936 102.82420637 12.93053595 113.19091797 14.27978516 C123.87355521 15.67012151 134.55659401 17.0573409 145.23983133 18.44305813 C154.4516051 19.63801416 163.66314074 20.83479327 172.8744837 22.03306568 C178.36038714 22.74669467 183.84637613 23.45964835 189.33259201 24.17087173 C194.46964035 24.83691607 199.60638753 25.5052359 204.74290848 26.17533493 C206.62783514 26.42085102 208.51286723 26.66555927 210.39801025 26.90940857 C212.96601809 27.24171868 215.53363213 27.57692103 218.10116577 27.91287231 C218.84996895 28.00907777 219.59877213 28.10528322 220.37026632 28.204404 C223.66130885 28.63792708 226.77205334 29.19301333 230 30 C230 48.48 230 66.96 230 86 C154.1 86 78.2 86 0 86 C0 57.62 0 29.24 0 0 Z " fill="#1C663C" transform="translate(391,304)"/>
</svg>
