<?xml version="1.0" encoding="UTF-8"?>
<svg version="1.1" xmlns="http://www.w3.org/2000/svg" width="2208" height="388">
<path d="M0 0 C1.01768089 0.98200082 2.01521256 1.98501542 3 3 C4.17762538 3.83221785 5.3820749 4.62728001 6.60546875 5.390625 C7.69118164 6.0722168 7.69118164 6.0722168 8.79882812 6.76757812 C9.9812207 7.50137695 9.9812207 7.50137695 11.1875 8.25 C12.01830078 8.77013672 12.84910156 9.29027344 13.70507812 9.82617188 C16.46769307 11.55458756 19.23381168 13.27730998 22 15 C23.97550098 16.23398997 25.95075709 17.46837202 27.92578125 18.703125 C30.98090584 20.61304054 34.03623466 22.52262128 37.0925293 24.43066406 C44.00185336 28.74506867 50.89445289 33.08499677 57.77734375 37.44140625 C64.17039781 41.48423133 70.58342346 45.49463562 77 49.5 C88.1161299 56.439778 99.19988483 63.42949306 110.27246094 70.43847656 C120.85882597 77.13819153 131.46876829 83.79884401 142.09643555 90.43286133 C149.00424738 94.74686781 155.895714 99.08579497 162.77734375 103.44140625 C169.17039752 107.48423115 175.58339613 111.4946798 182 115.5 C189.93368058 120.45229746 197.85395658 125.4246207 205.75537109 130.42822266 C210.22596942 133.25640537 214.706325 136.06826876 219.1953125 138.8671875 C220.79536133 139.86492187 220.79536133 139.86492187 222.42773438 140.8828125 C224.49856749 142.17313002 226.57013573 143.4622688 228.64257812 144.75 C229.59841797 145.34554687 230.55425781 145.94109375 231.5390625 146.5546875 C232.37646973 147.07530762 233.21387695 147.59592773 234.07666016 148.13232422 C235.0413623 148.74865723 236.00606445 149.36499023 237 150 C237.76314011 150.34747284 238.52628021 150.69494568 239.31254578 151.052948 C242.0530422 152.46882748 243.93458466 153.69670792 246 156 C247.25576944 160.69761123 247.05126555 165.32875637 246.87890625 170.1484375 C246.86210208 171.52987508 246.84929942 172.91136662 246.84031677 174.2928772 C246.80608891 177.91439121 246.71782084 181.53261203 246.61798096 185.15283203 C246.52560528 188.85273686 246.48474447 192.55317857 246.43945312 196.25390625 C246.34317357 203.50409934 246.18975629 210.75158684 246 218 C238.76560202 216.6789199 231.74924635 214.90070613 224.68920898 212.85253906 C223.59613969 212.53896737 222.50307039 212.22539568 221.37687778 211.90232182 C217.74885074 210.86053754 214.12249064 209.81306832 210.49609375 208.765625 C207.90310043 208.01990848 205.31001379 207.27452456 202.71679688 206.52958679 C197.17660742 204.93745617 191.63721665 203.34257353 186.09835815 201.74581909 C177.39962907 199.23823338 168.69912323 196.73684921 159.99829102 194.23657227 C157.05460392 193.39060457 154.11092643 192.54460345 151.16725159 191.69859314 C150.4360418 191.48844891 149.70483201 191.27830467 148.95146435 191.06179243 C143.7415136 189.56442177 138.53177054 188.06633 133.3221283 186.56788635 C106.96353181 178.98654624 80.59989517 171.42298153 54.23001099 163.88098145 C48.63132705 162.27953449 43.03347781 160.67519063 37.43583488 159.07010937 C33.2627556 157.87411768 29.08902414 156.6804151 24.9151001 155.48737526 C23.01327761 154.94332653 21.11170421 154.39840609 19.2104187 153.85248375 C-4.10372234 147.1598302 -27.62507635 141.9353477 -51.34594727 136.89794922 C-55.33506094 136.04958087 -59.32142089 135.18965707 -63.3059082 134.31982422 C-68.16403576 133.25939121 -73.02613968 132.2194706 -77.8917141 131.19376755 C-79.72906835 130.80293988 -81.56494539 130.40509333 -83.3991642 129.99980545 C-97.19172956 126.95306078 -97.19172956 126.95306078 -111 129 C-112.29844685 129.34653304 -113.59819647 129.68820413 -114.89888 130.02624512 C-119.60463013 131.26308262 -124.28595503 132.58172549 -128.96875 133.90234375 C-130.69775185 134.3859878 -132.42688026 134.86917958 -134.15612793 135.35194397 C-138.6838272 136.61721199 -143.20985952 137.88834149 -147.73553467 139.16082764 C-152.31883464 140.44849885 -156.90358969 141.73096587 -161.48828125 143.01367188 C-167.44946831 144.68167038 -173.41013087 146.35150006 -179.36972809 148.02517033 C-182.27108655 148.83920344 -185.17327976 149.65023256 -188.07559204 150.46085739 C-189.86901488 150.96330318 -191.66100735 151.47084679 -193.45288086 151.97879028 C-194.43716064 152.25463959 -195.42144043 152.53048889 -196.43554688 152.81469727 C-197.67153625 153.16420189 -197.67153625 153.16420189 -198.93249512 153.52076721 C-201 154 -201 154 -204 154 C-204 134.86 -204 115.72 -204 96 C-193.43957417 90.71978709 -182.87355904 85.46252397 -172.25 80.3125 C-171.54046173 79.9682901 -170.83092346 79.6240802 -170.09988403 79.2694397 C-159.47335925 74.11845094 -148.79919116 69.08236643 -138.07519531 64.13696289 C-127.84864935 59.41409812 -117.67135451 54.59044402 -107.5 49.75 C-104.05991604 48.11323877 -100.61981322 46.4765172 -97.1796875 44.83984375 C-96.32728989 44.43427246 -95.47489227 44.02870117 -94.59666443 43.61083984 C-85.94651977 39.49640106 -77.28735936 35.40114976 -68.625 31.3125 C-67.89407135 30.96749451 -67.1631427 30.62248901 -66.4100647 30.26702881 C-55.17214161 24.96346673 -43.93059375 19.66759075 -32.6875 14.375 C-31.65402435 13.88841415 -31.65402435 13.88841415 -30.59967041 13.39199829 C-27.34652855 11.86053987 -24.09271608 10.33054763 -20.83740234 8.80371094 C-18.14127651 7.53870279 -15.44983875 6.26420434 -12.76025391 4.98535156 C-11.38837062 4.33653724 -10.01646384 3.68777257 -8.64453125 3.0390625 C-8.006259 2.7335849 -7.36798676 2.4281073 -6.71037292 2.1133728 C-2.22611486 0 -2.22611486 0 0 0 Z " fill="#1C663C" transform="translate(334,4)"/>
<path d="M0 0 C1.18911484 0.34746277 2.37822968 0.69492554 3.6033783 1.05291748 C4.88608567 1.43785385 6.16876416 1.8228865 7.45141602 2.20800781 C8.7928673 2.60290569 10.13459362 2.99687034 11.47657776 3.38995361 C15.00571159 4.42591972 18.53158438 5.47255366 22.05670166 6.52209473 C27.65224268 8.18630841 33.25215198 9.83580726 38.85249901 11.48376465 C40.21334179 11.88421099 41.57408078 12.2850102 42.93471718 12.68615723 C51.09096815 15.08864018 59.24647515 17.33997825 67.51464844 19.32617188 C78.11416588 21.9578758 88.56339455 25.21964256 99.04559708 28.28087616 C105.11824861 30.05301321 111.19325273 31.81708787 117.26772881 33.58295822 C119.74789844 34.30405264 122.22796319 35.025507 124.70802307 35.74697876 C138.19951229 39.67063198 151.69748035 43.57166311 165.19750977 47.46582031 C166.24484095 47.76795189 167.29217213 48.07008347 168.37124062 48.38137054 C177.78838794 51.09788952 187.20579921 53.81349268 196.62350464 56.52807617 C209.30564243 60.18380619 221.98629591 63.8446248 234.66468048 67.51335144 C236.80116626 68.131466 238.93772118 68.74934158 241.07433319 69.36701965 C247.85020047 71.32587224 254.6250496 73.28818002 261.39850426 75.25535965 C263.55895529 75.88227861 265.71973081 76.50808044 267.88083839 77.13273239 C270.86449584 77.99540612 273.84693939 78.86215421 276.82910156 79.72998047 C278.17136212 80.11664824 278.17136212 80.11664824 279.54073906 80.51112747 C285.6536611 82.29697165 285.6536611 82.29697165 286.76782227 83.41113281 C286.85653499 86.44091085 286.88301577 89.44780303 286.86547852 92.47753906 C286.86406357 93.38616196 286.86264862 94.29478485 286.8611908 95.23094177 C286.8555742 98.14520502 286.84301891 101.05939262 286.83032227 103.97363281 C286.8253094 105.94433483 286.82074613 107.91503805 286.81665039 109.88574219 C286.80559938 114.7275684 286.78832365 119.56933776 286.76782227 124.41113281 C272.37418135 123.80093043 258.14221813 122.01240468 243.85009766 120.26831055 C241.15312665 119.94211765 238.45598657 119.61733251 235.7588501 119.29251099 C229.97967019 118.59582793 224.20088489 117.89594874 218.42234993 117.1939373 C210.05818092 116.17790807 201.69327789 115.16802732 193.32816701 114.1597854 C179.73923146 112.52185304 166.1506944 110.88064145 152.5625 109.23657227 C151.75148976 109.13844748 150.94047951 109.04032269 150.1048932 108.93922443 C141.87197435 107.94307442 133.63909774 106.94657558 125.40624866 105.94984907 C121.29101953 105.45163382 117.17578501 104.95346313 113.06054688 104.45532227 C111.84234951 104.30786007 111.84234951 104.30786007 110.59954209 104.15741884 C97.04947284 102.51731521 83.498903 100.88138545 69.94795603 99.24855 C61.60419745 98.24296514 53.26090021 97.23369817 44.91816836 96.21962977 C39.2060131 95.52556245 33.49340594 94.83530339 27.78043092 94.1480165 C24.48780106 93.75176863 21.19549821 93.35318708 17.9035778 92.95106316 C14.33046359 92.51484717 10.75661443 92.08523002 7.18251038 91.6572113 C6.14962908 91.52949213 5.11674779 91.40177296 4.05256706 91.2701835 C-3.37717816 90.39078926 -10.80617445 89.63256701 -18.1837616 91.25015259 C-19.05820545 91.43707987 -19.93264931 91.62400715 -20.83359146 91.81659889 C-21.76329632 92.02520231 -22.69300117 92.23380573 -23.65087891 92.44873047 C-24.66076244 92.66740973 -25.67064598 92.88608898 -26.71113205 93.11139488 C-30.06778969 93.84052971 -33.42138242 94.58287445 -36.77514648 95.32519531 C-39.17613177 95.84939281 -41.57730535 96.37272846 -43.97865295 96.89526367 C-49.11540479 98.01479868 -54.25092037 99.13982341 -59.38537598 100.26983643 C-67.45096743 102.04479027 -75.51954941 103.80589636 -83.58862305 105.56494141 C-86.3245166 106.16154531 -89.06038296 106.7582738 -91.79623413 107.35507202 C-92.47671999 107.50351063 -93.15720585 107.65194924 -93.85831249 107.80488598 C-98.7164007 108.86482939 -103.57408258 109.92662167 -108.43154907 110.9894104 C-109.12174279 111.14042123 -109.8119365 111.29143206 -110.52304518 111.44701898 C-111.55762801 111.67338381 -111.55762801 111.67338381 -112.6131115 111.90432167 C-135.52623088 116.91764829 -158.44667629 121.89689393 -181.37281704 126.85036278 C-188.07252172 128.29799846 -194.77127067 129.74994531 -201.46923733 131.20560074 C-205.5980285 132.10208688 -209.72755376 132.99515269 -213.8572979 133.88723755 C-215.76258126 134.29950957 -217.6675641 134.71317325 -219.57222176 135.12832642 C-222.15370505 135.69076173 -224.73623074 136.24813099 -227.3190918 136.80419922 C-228.07023349 136.96912683 -228.82137518 137.13405445 -229.59527874 137.30397987 C-232.92074969 138.01470502 -235.80953709 138.41113281 -239.23217773 138.41113281 C-239.23217773 111.02113281 -239.23217773 83.63113281 -239.23217773 55.41113281 C-218.55144802 49.66648567 -218.55144802 49.66648567 -211.21821594 47.83573914 C-210.35839637 47.61912229 -209.49857679 47.40250544 -208.61270207 47.17932445 C-205.81102105 46.47409183 -203.00855556 45.77203523 -200.20605469 45.07006836 C-198.1654793 44.55719299 -196.12494817 44.04414149 -194.0844574 43.53092957 C-188.60235193 42.1528592 -183.11948898 40.77782847 -177.63635659 39.40385032 C-174.20518011 38.54402279 -170.77412467 37.68371373 -167.34309959 36.82328224 C-156.58971074 34.12678562 -145.83581519 31.43232247 -135.0812276 28.74061078 C-122.69546463 25.64059292 -110.31148531 22.53357331 -97.92895538 19.42066735 C-88.32661333 17.00715008 -78.72270446 14.59993803 -69.11758584 12.1974948 C-63.39166388 10.76516507 -57.66644751 9.33014844 -51.94286537 7.88849449 C-46.57241428 6.53595962 -41.20006475 5.19124898 -35.82615089 3.85254097 C-33.85619476 3.3603688 -31.88693984 2.86538009 -29.91845322 2.36736298 C-27.23058289 1.68780458 -24.54036396 1.01846771 -21.84931946 0.35160828 C-21.07267026 0.15268956 -20.29602106 -0.04622915 -19.49583703 -0.2511757 C-12.66193783 -1.92401753 -6.80612734 -2.01833805 0 0 Z " fill="#64A77F" transform="translate(245.232177734375,159.5888671875)"/>
<path d="M0 0 C2.19926191 0.28659079 4.39864201 0.57227584 6.59812927 0.85713196 C12.521773 1.6268784 18.44369888 2.409161 24.36538124 3.1938343 C30.57168346 4.01400789 36.77951201 4.82246288 42.98718262 5.63220215 C53.39092931 6.99087185 63.79371986 8.3566656 74.19580078 9.72802734 C84.90187509 11.13944602 95.60850932 12.54649224 106.31591797 13.94775391 C106.97781441 14.03437678 107.63971084 14.12099965 108.32166475 14.21024746 C111.64277324 14.64485624 114.96389284 15.07938006 118.28501797 15.51386166 C145.76269035 19.10889439 173.23820776 22.72007662 200.71289062 26.33789062 C200.71289062 45.14789063 200.71289062 63.95789063 200.71289062 83.33789062 C37.69289063 83.33789062 -125.32710938 83.33789062 -293.28710938 83.33789062 C-293.28710938 61.88789063 -293.28710938 40.43789063 -293.28710938 18.33789062 C-273.7572533 16.0402605 -273.7572533 16.0402605 -265.31504822 15.37606812 C-264.33992659 15.29677177 -263.36480496 15.21747543 -262.36013418 15.13577616 C-259.16146453 14.87643892 -255.96245937 14.6215291 -252.76342773 14.36669922 C-250.44206241 14.17946621 -248.12071797 13.99197405 -245.7993927 13.804245 C-239.54357136 13.29922943 -233.28743127 12.79827736 -227.03119349 12.29844999 C-223.11336956 11.9852422 -219.19561997 11.67112076 -215.27789497 11.35667801 C-202.28928217 10.31419284 -189.30046529 9.27430771 -176.31136709 8.23788778 C-175.61427757 8.18226568 -174.91718805 8.12664357 -174.19897461 8.06933594 C-173.50101879 8.01364526 -172.80306296 7.95795458 -172.08395696 7.90057631 C-160.76607236 6.99734578 -149.4487082 6.08776528 -138.13156336 5.17531686 C-126.46508418 4.23477731 -114.79822942 3.29902471 -103.13097292 2.3681761 C-96.59901076 1.84689113 -90.06721822 1.32367262 -83.53581047 0.79548264 C-77.39411127 0.29898173 -71.25194861 -0.19134043 -65.10938835 -0.67706871 C-62.86639975 -0.85546022 -60.62357941 -1.03598323 -58.38095474 -1.21889305 C-38.40179306 -2.84614238 -19.87477805 -2.65977565 0 0 Z " fill="#64A77F" transform="translate(415.287109375,298.662109375)"/>
<path d="M0 0 C12.54 0 25.08 0 38 0 C39.59886466 3.99716164 40.37993247 6.67587994 40.9375 10.8125 C41.62859533 15.71102978 42.46708234 20.55492959 43.4140625 25.41015625 C44.87849285 33.07012427 46.04593809 40.75429431 47.1340332 48.47546387 C48.56433392 58.60666469 50.04391249 68.70482131 52 78.75 C54.26560118 90.48646209 55.68504069 102.33826823 57.20385742 114.18896484 C58.61136052 125.15971772 60.14222424 136.0950073 62 147 C62.13051758 146.24082275 62.26103516 145.48164551 62.39550781 144.69946289 C66.84133457 118.97245225 66.84133457 118.97245225 69.62670898 107.72387695 C70.68804008 103.41837676 71.54908754 99.11764459 72.3125 94.75 C74.34406542 83.33225356 77.29165015 72.10444791 80.05615234 60.84765625 C81.57098443 54.67234489 83.06820404 48.49280819 84.5625 42.3125 C84.99248291 40.53746094 84.99248291 40.53746094 85.43115234 38.7265625 C87.74276147 29.15008321 89.96643332 19.55444581 92.13500977 9.94458008 C92.36631592 8.92775146 92.59762207 7.91092285 92.8359375 6.86328125 C93.03751465 5.96907471 93.2390918 5.07486816 93.44677734 4.15356445 C94 2 94 2 95 0 C105.89 0 116.78 0 128 0 C132.49230769 15.72307692 132.49230769 15.72307692 133.78125 21.875 C133.99158875 22.86089111 133.99158875 22.86089111 134.20617676 23.86669922 C134.78703301 26.58997849 135.3567252 29.31555579 135.92724609 32.04101562 C137.40354401 39.06395165 138.94704855 46.02314553 140.97265625 52.9140625 C143.34577789 60.98747486 145.14665444 69.15745597 146.9375 77.375 C147.28854606 78.97212856 147.63978539 80.56921466 147.99121094 82.16625977 C150.75528535 94.75791474 153.45658305 107.36176341 156 120 C156.29414795 121.44874512 156.29414795 121.44874512 156.59423828 122.92675781 C157.17543147 125.80373538 157.74596309 128.68260403 158.3125 131.5625 C158.48426758 132.41384521 158.65603516 133.26519043 158.83300781 134.14233398 C159.74244261 138.85516178 160.17395072 143.20024853 160 148 C160.66 148 161.32 148 162 148 C162.03738281 147.06542969 162.07476563 146.13085938 162.11328125 145.16796875 C162.52845733 136.87258781 163.39369941 128.81771065 164.77490234 120.62915039 C165.85655831 114.14632223 166.67110197 107.6518959 167.4375 101.125 C168.45129695 92.61572026 169.82487668 84.26173604 171.51928711 75.86376953 C172.79190086 69.43455158 173.70700536 63.00462565 174.5 56.5 C175.51517421 48.18965559 176.86964296 40.02086712 178.51293945 31.81298828 C179.96559288 24.46361208 181.06007528 17.08662048 182.04882812 9.66162109 C182.16033203 8.83227051 182.27183594 8.00291992 182.38671875 7.1484375 C182.48170654 6.41802246 182.57669434 5.68760742 182.67456055 4.93505859 C183 3 183 3 184 0 C196.21 0 208.42 0 221 0 C220.443125 2.825625 219.88625 5.65125 219.3125 8.5625 C217.50077946 17.90572575 215.9748928 27.28653073 214.5 36.6875 C213.06827476 45.80635163 211.51268252 54.84712367 209.38110352 63.83178711 C207.95755901 69.90707724 206.99762483 76.01932198 206.0715332 82.1875 C205.37892606 86.7492348 204.56977107 91.24435738 203.5625 95.75 C202.28758249 101.47732172 201.23562306 107.2177804 200.25 113 C198.53630359 123.02641574 196.73801675 133.03593456 194.9005127 143.0402832 C194.59607755 144.69866417 194.29242516 146.35718905 193.98962402 148.01586914 C192.35180651 156.98272684 190.64868967 165.91348402 188.63305664 174.80444336 C187.90017617 178.50389284 187.46777773 182.25777816 187 186 C170.83 186 154.66 186 138 186 C137.01 180.72 136.02 175.44 135 170 C133.9159294 165.89802466 133.9159294 165.89802466 132.74609375 161.8203125 C132.11126467 159.42059211 131.60202352 157.05581252 131.12890625 154.62109375 C129.77101978 147.68435871 128.12257056 140.8160825 126.5 133.9375 C122.97881103 118.96969308 122.97881103 118.96969308 121.46533203 112.07397461 C120.96211538 109.83114909 120.42682916 107.59749969 119.88671875 105.36328125 C117.23342598 94.26689094 115.05745031 83.12676977 113.1875 71.875 C113.07659027 71.21271393 112.96568054 70.55042786 112.85140991 69.86807251 C111 58.75357001 111 58.75357001 111 54 C110.34 54 109.68 54 109 54 C109.02940674 55.15016602 109.05881348 56.30033203 109.08911133 57.48535156 C109.08556003 61.87138684 108.44390598 65.94648997 107.57421875 70.234375 C107.42596146 70.99365295 107.27770416 71.75293091 107.12495422 72.53521729 C106.81153787 74.13257614 106.49452517 75.7292332 106.17407227 77.32519531 C105.69185801 79.72828208 105.22093187 82.13336156 104.75195312 84.5390625 C103.26969083 92.07679564 101.65253326 99.53383011 99.72241211 106.97143555 C98.8726469 110.53390174 98.20474153 114.11982358 97.5546875 117.72265625 C96.17839428 125.3220308 94.45943762 132.81034124 92.63943481 140.3142395 C89.62792727 152.74383179 86.83749293 165.18090784 84.45947266 177.74975586 C84.27819824 178.69987549 84.09692383 179.64999512 83.91015625 180.62890625 C83.75683838 181.45463135 83.60352051 182.28035645 83.44555664 183.13110352 C83 185 83 185 82 186 C80.52645652 186.09304018 79.04849409 186.11746265 77.57202148 186.11352539 C76.63112167 186.11344986 75.69022186 186.11337433 74.72080994 186.11329651 C73.69790359 186.10813522 72.67499725 186.10297394 71.62109375 186.09765625 C70.058395 186.09553383 70.058395 186.09553383 68.46412659 186.09336853 C65.12188906 186.0877508 61.77971743 186.0751953 58.4375 186.0625 C56.17773534 186.05748728 53.91796963 186.05292398 51.65820312 186.04882812 C46.10544609 186.03777561 40.55272775 186.02102024 35 186 C31.66167141 170.29550652 28.51178529 154.59414175 25.75952148 138.77490234 C24.48871193 131.53884794 23.03560109 124.37984365 21.3762207 117.22412109 C20.25253621 112.31818182 19.35308362 107.40743636 18.5625 102.4375 C17.41518054 95.23497168 16.06699752 88.08682994 14.625 80.9375 C14.41109619 79.87684326 14.19719238 78.81618652 13.97680664 77.72338867 C13.1118556 73.45074282 12.24175858 69.17917841 11.36621094 64.90869141 C8.55636485 51.19585097 5.97629183 37.46637432 3.69921875 23.65527344 C2.59597277 16.8054989 2.59597277 16.8054989 0.85546875 10.1015625 C0 7 0 7 0 0 Z " fill="#1B663B" transform="translate(1589,140)"/>
<path d="M0 0 C11.24784392 2.24956878 11.24784392 2.24956878 15.93017578 3.63232422 C16.97891876 3.93959442 18.02766174 4.24686462 19.10818481 4.56344604 C20.20943695 4.89055573 21.31068909 5.21766541 22.4453125 5.5546875 C24.19834183 6.06891769 24.19834183 6.06891769 25.98678589 6.59353638 C29.70072778 7.6833122 33.41300742 8.77860438 37.125 9.875 C54.93173095 15.22506715 54.93173095 15.22506715 72.90234375 19.9765625 C84.80591825 22.85701474 96.52433117 26.43725514 108.27777481 29.86974335 C114.35042634 31.6418804 120.42543046 33.40595506 126.49990654 35.17182541 C128.98007617 35.89291983 131.46014092 36.61437419 133.94020081 37.33584595 C147.43169002 41.25949917 160.92965808 45.16053029 174.4296875 49.0546875 C176.00068427 49.50788486 176.00068427 49.50788486 177.60341835 49.97023773 C187.02056567 52.6867567 196.43797695 55.40235987 205.85568237 58.11694336 C218.53782016 61.77267338 231.21847364 65.43349199 243.89685822 69.10221863 C246.03334399 69.72033319 248.16989892 70.33820877 250.30651093 70.95588684 C257.0823782 72.91473943 263.85722733 74.8770472 270.63068199 76.84422684 C272.79113302 77.4711458 274.95190855 78.09694763 277.11301613 78.72159958 C280.09667357 79.58427331 283.07911713 80.4510214 286.0612793 81.31884766 C287.40353986 81.70551542 287.40353986 81.70551542 288.77291679 82.09999466 C294.88583883 83.88583883 294.88583883 83.88583883 296 85 C296.08871273 88.02977804 296.1151935 91.03667022 296.09765625 94.06640625 C296.09553383 95.42934059 296.09553383 95.42934059 296.09336853 96.81980896 C296.08775193 99.73407221 296.07519665 102.64825981 296.0625 105.5625 C296.05748714 107.53320202 296.05292386 109.50390524 296.04882812 111.47460938 C296.03777711 116.31643559 296.02050138 121.15820495 296 126 C281.58718433 125.3852988 267.33193521 123.60641237 253.01879883 121.87304688 C250.31533221 121.54851613 247.61170287 121.2253498 244.90808105 120.90211487 C238.36421583 120.11892439 231.82093551 119.33094962 225.27784763 118.54129422 C217.65039384 117.62095926 210.02236038 116.70547296 202.39430221 115.79016322 C188.78740469 114.15727331 175.18103045 112.52006385 161.57495117 110.88037109 C148.38066682 109.2903086 135.18602221 107.70328031 121.9909668 106.11962891 C121.1765736 106.02188618 120.36218041 105.92414345 119.52310864 105.82343882 C118.71009876 105.72586262 117.89708888 105.62828641 117.05944234 105.52775335 C102.01084347 103.72162874 86.96255646 101.91291824 71.91443095 100.10285422 C67.354318 99.55438475 62.79415006 99.00637505 58.23394094 98.45870578 C51.0086232 97.59096343 43.78345621 96.72198861 36.55860315 95.85038507 C33.25882881 95.45232721 29.95896105 95.05509339 26.65893364 94.65913582 C23.08362297 94.23002633 19.50861219 93.79850035 15.93367004 93.36633301 C14.88913739 93.24152668 13.84460473 93.11672034 12.76841956 92.988132 C11.3313868 92.81364239 11.3313868 92.81364239 9.86532307 92.63562775 C9.0405101 92.53630337 8.21569714 92.436979 7.36588985 92.33464479 C4.895207 91.98517749 2.44681919 91.48936384 0 91 C0 60.97 0 30.94 0 0 Z " fill="#1C663C" transform="translate(236,158)"/>
<path d="M0 0 C0 48.51 0 97.02 0 147 C-6.63516695 146.33648331 -12.78158746 145.55844214 -19.22241211 144.1105957 C-20.08402451 143.92191925 -20.9456369 143.7332428 -21.83335876 143.53884888 C-23.68563749 143.13294842 -25.53741209 142.72474167 -27.38871574 142.31441689 C-30.32719872 141.66475901 -33.26763528 141.02478354 -36.20887756 140.38774109 C-44.56504367 138.57755009 -52.91976054 136.76132858 -61.26733398 134.91186523 C-66.39086455 133.7774426 -71.51850825 132.66360209 -76.64935493 131.56276512 C-78.59290953 131.14174229 -80.53484773 130.71317945 -82.47498894 130.27669716 C-96.7276675 126.96127295 -96.7276675 126.96127295 -111 129 C-112.29675675 129.34797557 -113.59512799 129.6899636 -114.89463806 130.0275116 C-119.60221961 131.2625666 -124.28469017 132.58136878 -128.96875 133.90234375 C-130.69775185 134.3859878 -132.42688026 134.86917958 -134.15612793 135.35194397 C-138.6838272 136.61721199 -143.20985952 137.88834149 -147.73553467 139.16082764 C-152.31883464 140.44849885 -156.90358969 141.73096587 -161.48828125 143.01367188 C-167.44946831 144.68167038 -173.41013087 146.35150006 -179.36972809 148.02517033 C-182.27108655 148.83920344 -185.17327976 149.65023256 -188.07559204 150.46085739 C-189.86901488 150.96330318 -191.66100735 151.47084679 -193.45288086 151.97879028 C-194.43716064 152.25463959 -195.42144043 152.53048889 -196.43554688 152.81469727 C-197.67153625 153.16420189 -197.67153625 153.16420189 -198.93249512 153.52076721 C-201 154 -201 154 -204 154 C-204 134.86 -204 115.72 -204 96 C-193.43957417 90.71978709 -182.87355904 85.46252397 -172.25 80.3125 C-171.54046173 79.9682901 -170.83092346 79.6240802 -170.09988403 79.2694397 C-159.47335925 74.11845094 -148.79919116 69.08236643 -138.07519531 64.13696289 C-127.84864935 59.41409812 -117.67135451 54.59044402 -107.5 49.75 C-104.05991604 48.11323877 -100.61981322 46.4765172 -97.1796875 44.83984375 C-96.32728989 44.43427246 -95.47489227 44.02870117 -94.59666443 43.61083984 C-85.94651977 39.49640106 -77.28735936 35.40114976 -68.625 31.3125 C-67.89407135 30.96749451 -67.1631427 30.62248901 -66.4100647 30.26702881 C-55.17214161 24.96346673 -43.93059375 19.66759075 -32.6875 14.375 C-31.65402435 13.88841415 -31.65402435 13.88841415 -30.59967041 13.39199829 C-27.34652855 11.86053987 -24.09271608 10.33054763 -20.83740234 8.80371094 C-18.14127651 7.53870279 -15.44983875 6.26420434 -12.76025391 4.98535156 C-11.38837062 4.33653724 -10.01646384 3.68777257 -8.64453125 3.0390625 C-8.006259 2.7335849 -7.36798676 2.4281073 -6.71037292 2.1133728 C-2.22611486 0 -2.22611486 0 0 0 Z " fill="#64A77F" transform="translate(334,4)"/>
<path d="M0 0 C16.08145034 1.14867502 16.08145034 1.14867502 23.88375854 2.1832428 C24.7777678 2.29843669 25.67177706 2.41363058 26.59287751 2.53231519 C29.53491701 2.91236774 32.47618483 3.29807426 35.41748047 3.68383789 C37.54755256 3.96018859 39.67767068 4.2361848 41.80783081 4.51185608 C47.55109083 5.25612034 53.29369971 6.00530113 59.03619909 6.75540853 C65.05225086 7.54038356 71.06889694 8.32077679 77.08547974 9.10166931 C88.46104242 10.57880511 99.83606958 12.06002322 111.2109071 13.5427317 C124.16825026 15.23151566 137.12618831 16.91571284 150.08417678 18.59953701 C176.72344741 22.06127753 203.36188942 25.52934337 230 29 C230 47.81 230 66.62 230 86 C154.1 86 78.2 86 0 86 C0 57.62 0 29.24 0 0 Z " fill="#1C663C" transform="translate(386,296)"/>
<path d="M0 0 C0.92619141 0.78503906 0.92619141 0.78503906 1.87109375 1.5859375 C1.87109375 2.2459375 1.87109375 2.9059375 1.87109375 3.5859375 C2.86109375 3.9159375 3.85109375 4.2459375 4.87109375 4.5859375 C4.87109375 5.2459375 4.87109375 5.9059375 4.87109375 6.5859375 C5.53109375 6.5859375 6.19109375 6.5859375 6.87109375 6.5859375 C8.2734375 8.59765625 8.2734375 8.59765625 9.80859375 11.2734375 C10.31261719 12.14355469 10.81664062 13.01367188 11.3359375 13.91015625 C11.84253906 14.79316406 12.34914063 15.67617187 12.87109375 16.5859375 C13.38671875 17.38515625 13.90234375 18.184375 14.43359375 19.0078125 C16.10016515 21.99677207 17.0080582 24.85473002 17.93359375 28.1484375 C18.25457031 29.26347656 18.57554687 30.37851563 18.90625 31.52734375 C21.33090009 41.17725133 22.2064087 50.59012923 22.12109375 60.5234375 C22.11432617 61.66570801 22.10755859 62.80797852 22.10058594 63.98486328 C21.85269582 84.15908344 16.81033843 103.80988594 3.24609375 119.4609375 C1.87109375 120.5859375 1.87109375 120.5859375 -0.12890625 120.5859375 C-0.12890625 121.2459375 -0.12890625 121.9059375 -0.12890625 122.5859375 C-0.78890625 122.5859375 -1.44890625 122.5859375 -2.12890625 122.5859375 C-2.12890625 123.2459375 -2.12890625 123.9059375 -2.12890625 124.5859375 C-14.18013856 134.80055194 -27.54836489 138.65388641 -43.11132812 137.78564453 C-51.84475781 136.92117872 -59.78823034 133.21416727 -67.12890625 128.5859375 C-67.12890625 127.9259375 -67.12890625 127.2659375 -67.12890625 126.5859375 C-68.44890625 125.9259375 -69.76890625 125.2659375 -71.12890625 124.5859375 C-71.12890625 145.7059375 -71.12890625 166.8259375 -71.12890625 188.5859375 C-83.66890625 188.5859375 -96.20890625 188.5859375 -109.12890625 188.5859375 C-109.12890625 123.9059375 -109.12890625 59.2259375 -109.12890625 -7.4140625 C-98.89890625 -7.4140625 -88.66890625 -7.4140625 -78.12890625 -7.4140625 C-77.13890625 -3.1240625 -76.14890625 1.1659375 -75.12890625 5.5859375 C-74.18015625 4.9259375 -73.23140625 4.2659375 -72.25390625 3.5859375 C-69.12890625 1.5859375 -69.12890625 1.5859375 -67.12890625 1.5859375 C-67.12890625 0.9259375 -67.12890625 0.2659375 -67.12890625 -0.4140625 C-63.12890625 -2.4140625 -59.12890625 -4.4140625 -55.12890625 -6.4140625 C-53.59363281 -7.2184375 -53.59363281 -7.2184375 -52.02734375 -8.0390625 C-34.62101794 -16.29651086 -14.86003257 -10.35904858 0 0 Z M-71.12890625 33.5859375 C-71.28062713 35.51090512 -71.36246538 37.44141458 -71.41699219 39.37158203 C-71.45242126 40.61022003 -71.48785034 41.84885803 -71.52435303 43.12503052 C-71.63808352 48.06551483 -71.72076481 53.00650491 -71.78097153 57.94792366 C-71.82711465 61.6989399 -71.89439445 65.44682476 -72.01367188 69.19628906 C-72.12860212 72.82231377 -72.1888923 76.4455324 -72.21149445 80.07326889 C-72.22922786 81.45224482 -72.26596931 82.83111849 -72.32250214 84.20904922 C-72.49200445 88.54664883 -72.44193783 92.43104629 -71.12890625 96.5859375 C-64.77811548 103.13383569 -54.86962051 106.42489655 -45.83984375 106.640625 C-40.4289501 106.16012093 -35.91836348 103.98066611 -31.12890625 101.5859375 C-31.12890625 100.9259375 -31.12890625 100.2659375 -31.12890625 99.5859375 C-30.46890625 99.5859375 -29.80890625 99.5859375 -29.12890625 99.5859375 C-29.12890625 98.9259375 -29.12890625 98.2659375 -29.12890625 97.5859375 C-28.46890625 97.5859375 -27.80890625 97.5859375 -27.12890625 97.5859375 C-27.12890625 96.9259375 -27.12890625 96.2659375 -27.12890625 95.5859375 C-26.46890625 95.5859375 -25.80890625 95.5859375 -25.12890625 95.5859375 C-24.63390625 93.6059375 -24.63390625 93.6059375 -24.12890625 91.5859375 C-23.46890625 91.5859375 -22.80890625 91.5859375 -22.12890625 91.5859375 C-19.54138436 83.90761672 -17.39721959 76.70533255 -17.12890625 68.5859375 C-17.08894531 67.420625 -17.04898438 66.2553125 -17.0078125 65.0546875 C-16.76165098 50.80627953 -17.87342895 36.04050934 -28.15234375 25.21484375 C-33.41807091 20.8753018 -39.93283115 19.98896315 -46.59765625 20.24609375 C-55.83725998 21.4865961 -64.60232191 27.05935316 -71.12890625 33.5859375 Z " fill="#1B663B" transform="translate(973.12890625,192.4140625)"/>
<path d="M0 0 C1.36328125 1.67578125 1.36328125 1.67578125 1.36328125 5.67578125 C0.70328125 5.67578125 0.04328125 5.67578125 -0.63671875 5.67578125 C-0.97703125 6.44921875 -0.97703125 6.44921875 -1.32421875 7.23828125 C-3.11889493 10.5712513 -5.1363689 13.82281796 -7.63671875 16.67578125 C-8.29671875 16.67578125 -8.95671875 16.67578125 -9.63671875 16.67578125 C-9.86359375 17.19140625 -10.09046875 17.70703125 -10.32421875 18.23828125 C-12.11889493 21.5712513 -14.1363689 24.82281796 -16.63671875 27.67578125 C-17.29671875 27.67578125 -17.95671875 27.67578125 -18.63671875 27.67578125 C-18.63671875 27.01578125 -18.63671875 26.35578125 -18.63671875 25.67578125 C-19.37921875 25.40507812 -20.12171875 25.134375 -20.88671875 24.85546875 C-23.49763469 23.73544515 -25.38106544 22.50133238 -27.63671875 20.80078125 C-36.94199539 14.60738342 -45.95093644 13.32403778 -56.88671875 13.23828125 C-57.80928467 13.22812988 -58.73185059 13.21797852 -59.68237305 13.20751953 C-65.82490338 13.28581047 -70.9413968 14.3813951 -76.63671875 16.67578125 C-76.63671875 17.33578125 -76.63671875 17.99578125 -76.63671875 18.67578125 C-77.62671875 19.33578125 -78.61671875 19.99578125 -79.63671875 20.67578125 C-82.81366072 25.47317684 -82.18543222 31.16640145 -81.63671875 36.67578125 C-79.02887857 43.58655774 -71.94468947 46.55127239 -65.63671875 49.67578125 C-62.42511444 51.0165481 -59.19249546 52.24072535 -55.921875 53.4296875 C-52.57464773 54.69932543 -49.37238723 56.14555536 -46.13671875 57.67578125 C-40.71776301 60.23090099 -35.23087421 62.43191369 -29.609375 64.5 C-26.51638098 65.72337871 -23.58992466 67.14856449 -20.63671875 68.67578125 C-20.63671875 69.33578125 -20.63671875 69.99578125 -20.63671875 70.67578125 C-20.0746875 70.78019531 -19.51265625 70.88460937 -18.93359375 70.9921875 C-16.21291404 71.8019136 -14.24414068 73.03781463 -11.88671875 74.61328125 C-11.0875 75.13792969 -10.28828125 75.66257812 -9.46484375 76.203125 C-8.8615625 76.68910156 -8.25828125 77.17507812 -7.63671875 77.67578125 C-7.63671875 78.33578125 -7.63671875 78.99578125 -7.63671875 79.67578125 C-6.97671875 79.67578125 -6.31671875 79.67578125 -5.63671875 79.67578125 C-5.63671875 80.33578125 -5.63671875 80.99578125 -5.63671875 81.67578125 C-4.15171875 82.17078125 -4.15171875 82.17078125 -2.63671875 82.67578125 C8.04625816 95.38963658 8.20817679 110.5307785 7.1953125 126.2890625 C6.33401473 131.5075137 3.83731727 136.20344922 1.55078125 140.92578125 C1.21949219 141.61236816 0.88820313 142.29895508 0.546875 143.00634766 C-1.63794534 147.30351113 -4.01449218 150.40821892 -7.63671875 153.67578125 C-8.17554688 154.18882812 -8.714375 154.701875 -9.26953125 155.23046875 C-18.11070502 163.05328743 -27.17489077 167.84938253 -38.63671875 170.67578125 C-39.46042969 170.90136719 -40.28414062 171.12695312 -41.1328125 171.359375 C-66.93462347 177.34539514 -93.85111654 170.36724883 -115.88769531 156.79345703 C-120.66469283 153.74081959 -125.47994548 150.53564214 -129.63671875 146.67578125 C-129.63671875 145.68578125 -129.63671875 144.69578125 -129.63671875 143.67578125 C-128.97671875 143.67578125 -128.31671875 143.67578125 -127.63671875 143.67578125 C-127.29640625 142.90234375 -127.29640625 142.90234375 -126.94921875 142.11328125 C-125.15454257 138.7803112 -123.1370686 135.52874454 -120.63671875 132.67578125 C-119.97671875 132.67578125 -119.31671875 132.67578125 -118.63671875 132.67578125 C-118.38148438 132.11375 -118.12625 131.55171875 -117.86328125 130.97265625 C-116.47979094 128.38191643 -114.83733292 126.2247028 -113.01171875 123.92578125 C-112.06425781 122.72695313 -112.06425781 122.72695313 -111.09765625 121.50390625 C-110.61554687 120.900625 -110.1334375 120.29734375 -109.63671875 119.67578125 C-104.88671875 120.55078125 -104.88671875 120.55078125 -102.63671875 121.67578125 C-102.63671875 122.33578125 -102.63671875 122.99578125 -102.63671875 123.67578125 C-102.06953125 123.94777344 -101.50234375 124.21976563 -100.91796875 124.5 C-98.56547774 125.71249965 -96.3738784 127.07514207 -94.13671875 128.48828125 C-80.55570696 136.66889071 -66.31490364 140.93311661 -50.43359375 138.10546875 C-45.73061152 136.91086096 -42.49215781 135.6294116 -38.63671875 132.67578125 C-37.97671875 132.67578125 -37.31671875 132.67578125 -36.63671875 132.67578125 C-36.63671875 132.01578125 -36.63671875 131.35578125 -36.63671875 130.67578125 C-35.97671875 130.67578125 -35.31671875 130.67578125 -34.63671875 130.67578125 C-32.06451231 124.88831675 -31.92260198 118.89029742 -32.63671875 112.67578125 C-33.91267691 109.47986718 -35.48401534 107.25213295 -38.63671875 105.67578125 C-38.63671875 105.01578125 -38.63671875 104.35578125 -38.63671875 103.67578125 C-39.47074219 103.42441406 -40.30476562 103.17304688 -41.1640625 102.9140625 C-45.04484601 101.53025106 -48.55362921 99.76417044 -52.19921875 97.86328125 C-58.27821757 94.7506764 -64.38754325 92.11968298 -70.8046875 89.76171875 C-73.93880395 88.5599472 -76.8589109 87.12546434 -79.82421875 85.5625 C-81.67015714 84.65942238 -83.50067228 84.01148723 -85.44921875 83.36328125 C-100.34757931 77.91123932 -112.09544678 66.22479425 -118.94921875 52.17578125 C-120.82222964 47.68366385 -121.45390928 43.51625801 -121.63671875 38.67578125 C-121.67667969 37.79792969 -121.71664062 36.92007813 -121.7578125 36.015625 C-122.02632542 24.78546688 -119.22507982 15.86824744 -114.63671875 5.67578125 C-113.97671875 5.67578125 -113.31671875 5.67578125 -112.63671875 5.67578125 C-112.40984375 4.95003906 -112.18296875 4.22429687 -111.94921875 3.4765625 C-110.36211132 0.08978861 -108.44089889 -1.67898529 -105.63671875 -4.13671875 C-104.74984375 -4.92691406 -103.86296875 -5.71710938 -102.94921875 -6.53125 C-100.63671875 -8.32421875 -100.63671875 -8.32421875 -98.63671875 -8.32421875 C-98.63671875 -8.98421875 -98.63671875 -9.64421875 -98.63671875 -10.32421875 C-95.98932959 -11.78484725 -94.74223541 -12.32421875 -91.63671875 -12.32421875 C-91.63671875 -12.98421875 -91.63671875 -13.64421875 -91.63671875 -14.32421875 C-60.05418962 -27.47942166 -26.20433694 -22.00324084 0 0 Z " fill="#1B663C" transform="translate(822.63671875,157.32421875)"/>
<path d="M0 0 C12.21 0 24.42 0 37 0 C37.33 38.94 37.66 77.88 38 118 C40.31 115.03 42.62 112.06 45 109 C45.66 109 46.32 109 47 109 C47.23847656 108.28714844 47.47695312 107.57429688 47.72265625 106.83984375 C49.20714951 103.5394566 51.0675404 101.29648539 53.4375 98.5625 C54.33248683 97.5158233 55.22564095 96.46757739 56.1171875 95.41796875 C56.58479492 94.86802246 57.05240234 94.31807617 57.53417969 93.75146484 C60.10754437 90.67662836 62.58638926 87.52830965 65.0625 84.375 C65.53937256 83.77115479 66.01624512 83.16730957 66.50756836 82.54516602 C68.98106213 79.42138932 68.98106213 79.42138932 71 76 C71.66 76 72.32 76 73 76 C73.226875 75.484375 73.45375 74.96875 73.6875 74.4375 C75.48217618 71.10452995 77.49965015 67.85296329 80 65 C80.66 65 81.32 65 82 65 C82.4640625 64.0409375 82.4640625 64.0409375 82.9375 63.0625 C84 61 84 61 85 60 C88.10251201 59.91125865 91.1826812 59.88481545 94.28515625 59.90234375 C95.21597519 59.9037587 96.14679413 59.90517365 97.1058197 59.90663147 C100.09141191 59.91224828 103.07693029 59.9248036 106.0625 59.9375 C108.08137913 59.94251284 110.10025943 59.94707612 112.11914062 59.95117188 C117.07945572 59.96222317 122.03971532 59.97949905 127 60 C125.625 62.5 125.625 62.5 124 65 C123.34 65 122.68 65 122 65 C122 65.66 122 66.32 122 67 C121.34 67 120.68 67 120 67 C119.7421875 67.56203125 119.484375 68.1240625 119.21875 68.703125 C117.85830223 71.26704579 116.27211038 73.45226365 114.5 75.75 C113.8915625 76.54921875 113.283125 77.3484375 112.65625 78.171875 C112.1096875 78.77515625 111.563125 79.3784375 111 80 C110.34 80 109.68 80 109 80 C108.34 81.65 107.68 83.3 107 85 C106.34 85 105.68 85 105 85 C104.73832031 85.56847656 104.47664063 86.13695312 104.20703125 86.72265625 C100.90597139 92.95086951 95.94305125 98.05694875 91 103 C89.14740353 105.37729699 87.33686293 107.77938586 85.55078125 110.20703125 C85.03902344 110.79871094 84.52726562 111.39039063 84 112 C83.34 112 82.68 112 82 112 C80.23537317 115.08809695 80 116.23312136 80 120 C80.7786937 121.7950733 80.7786937 121.7950733 81.94140625 123.50390625 C82.35704834 124.15705811 82.77269043 124.81020996 83.20092773 125.4831543 C83.65024658 126.16933838 84.09956543 126.85552246 84.5625 127.5625 C85.01633057 128.27124268 85.47016113 128.97998535 85.93774414 129.71020508 C86.85479915 131.14092748 87.7755843 132.56926623 88.70019531 133.99511719 C90.4634432 136.71483763 92.20023927 139.45112794 93.9375 142.1875 C94.46214844 143.00605469 94.98679687 143.82460938 95.52734375 144.66796875 C96.01332031 145.43753906 96.49929687 146.20710937 97 147 C97.55816406 147.88300781 98.11632813 148.76601563 98.69140625 149.67578125 C100 152 100 152 100 154 C100.66 154 101.32 154 102 154 C103.52534977 156.32848089 104.93572374 158.6480213 106.3125 161.0625 C108.64957936 165.11954236 110.98963559 169.05270043 113.79296875 172.80859375 C116 176 116 176 116 179 C116.66 179 117.32 179 118 179 C119.26171875 180.80078125 119.26171875 180.80078125 120.6875 183.3125 C123.54650827 188.25399577 126.5755051 193.05700246 129.6796875 197.84765625 C131 200 131 200 131 201 C117.14 201 103.28 201 89 201 C84 192 84 192 84 190 C83.34 190 82.68 190 82 190 C80.5393715 187.35261084 80 186.10551666 80 183 C79.34 183 78.68 183 78 183 C77.4740625 181.90816406 76.948125 180.81632813 76.40625 179.69140625 C73.7018366 174.28376978 70.60151007 169.1242657 67.5 163.9375 C66.36413029 162.03021765 65.22870342 160.12267149 64.09375 158.21484375 C63.56265625 157.32265137 63.0315625 156.43045898 62.484375 155.51123047 C60.62157801 152.35979465 58.80290511 149.18601614 57 146 C53.24317182 147.49771101 51.4797895 149.61976317 49.0625 152.8125 C46.21656874 156.48518223 43.37905533 159.81971263 40 163 C37.0579214 165.9420786 37.64442253 169.12112145 37.5859375 173.0703125 C37.56829346 173.77599365 37.55064941 174.4816748 37.5324707 175.20874023 C37.46935903 177.84726082 37.42320312 180.48616495 37.375 183.125 C37.25125 189.02375 37.1275 194.9225 37 201 C24.79 201 12.58 201 0 201 C0 134.67 0 68.34 0 0 Z " fill="#1B663B" transform="translate(2072,125)"/>
<path d="M0 0 C11.08598787 9.18553281 17.28182832 21.97506199 18.79077148 36.17504883 C19.59080257 45.40822104 19.37259083 54.68989992 19.34765625 63.94921875 C19.34578823 65.99615952 19.34436614 68.04310074 19.34336853 70.09004211 C19.33957362 75.44437929 19.32976958 80.7986888 19.31866455 86.15301514 C19.30838496 91.63000108 19.30385695 97.10699154 19.29882812 102.58398438 C19.28814425 113.30600362 19.27057237 124.02799516 19.25 134.75 C8.69 134.75 -1.87 134.75 -12.75 134.75 C-13.41 130.79 -14.07 126.83 -14.75 122.75 C-18.21395815 122.75 -20.80634749 125.49272697 -23.5625 127.4375 C-30.33098729 132.09498689 -36.86541366 135.30384406 -44.75 137.75 C-45.36746094 137.94722656 -45.98492188 138.14445313 -46.62109375 138.34765625 C-59.54622913 140.79038826 -71.91676068 138.47338021 -83.14453125 131.703125 C-84.00433594 131.05859375 -84.86414062 130.4140625 -85.75 129.75 C-85.75 129.09 -85.75 128.43 -85.75 127.75 C-86.306875 127.564375 -86.86375 127.37875 -87.4375 127.1875 C-95.02355813 122.47184225 -97.28554279 112.97408936 -99.32666016 104.77929688 C-101.84401898 92.7122343 -98.40348554 82.27717996 -92.75 71.75 C-92.09 71.75 -91.43 71.75 -90.75 71.75 C-90.35941406 70.86441406 -90.35941406 70.86441406 -89.9609375 69.9609375 C-85.63978244 62.07134471 -76.58195945 58.26680244 -68.75 54.75 C-67.68265625 54.24984375 -66.6153125 53.7496875 -65.515625 53.234375 C-61.01123505 51.32495221 -56.32705022 50.30237856 -51.5625 49.25 C-50.6122998 49.03641846 -49.66209961 48.82283691 -48.68310547 48.6027832 C-39.10682549 46.50841736 -29.46234495 45.04568159 -19.75 43.75 C-20.18564355 36.61431635 -20.18564355 36.61431635 -23.3125 30.3125 C-25.75 26.89447592 -25.75 26.89447592 -25.75 24.75 C-38.38881596 19.95695016 -50.23791647 20.86330643 -62.75 25.75 C-66.1661249 27.4033912 -69.49735244 29.19781652 -72.77685547 31.10742188 C-76.15934798 33.05606172 -77.73053675 33.75 -81.75 33.75 C-86.19804323 25.47200391 -90.61832923 17.19211575 -94.75 8.75 C-93.43 8.42 -92.11 8.09 -90.75 7.75 C-90.75 7.09 -90.75 6.43 -90.75 5.75 C-63.35002146 -8.50456155 -27.62078385 -20.14307587 0 0 Z M-56.8125 80.4375 C-57.451875 81.200625 -58.09125 81.96375 -58.75 82.75 C-59.3275 83.265625 -59.905 83.78125 -60.5 84.3125 C-63.28758461 87.51822231 -63.0334567 91.6250327 -62.96484375 95.7265625 C-62.50322034 100.07421573 -60.63378183 102.90667297 -57.53125 105.8671875 C-52.28235517 109.42051237 -45.54004112 109.15451999 -39.37109375 108.49609375 C-33.44282136 107.20834769 -28.7303608 104.07024053 -23.75 100.75 C-23.75 100.09 -23.75 99.43 -23.75 98.75 C-23.09 98.75 -22.43 98.75 -21.75 98.75 C-21.75 98.09 -21.75 97.43 -21.75 96.75 C-20.76 96.42 -19.77 96.09 -18.75 95.75 C-18.75 86.51 -18.75 77.27 -18.75 67.75 C-31.40279823 67.75 -47.51883325 71.41557789 -56.8125 80.4375 Z " fill="#1B663B" transform="translate(1926.75,191.25)"/>
<path d="M0 0 C0 0.66 0 1.32 0 2 C0.57234375 2.08378906 1.1446875 2.16757813 1.734375 2.25390625 C4.67030973 3.22073993 6.09968312 4.73541623 8.25 6.9375 C8.95640625 7.64777344 9.6628125 8.35804688 10.390625 9.08984375 C12 11 12 11 12 13 C12.66 13 13.32 13 14 13 C15.13565077 15.474747 16.25848108 17.95413152 17.375 20.4375 C17.85066406 21.46907227 17.85066406 21.46907227 18.3359375 22.52148438 C18.6453125 23.21435547 18.9546875 23.90722656 19.2734375 24.62109375 C19.69761963 25.55586548 19.69761963 25.55586548 20.13037109 26.50952148 C22.64441145 33.70933217 23.287463 40.61714376 23.22705078 48.20141602 C23.22734283 49.17808731 23.22763489 50.15475861 23.22793579 51.161026 C23.22655302 54.35874614 23.21104169 57.55622729 23.1953125 60.75390625 C23.19157863 62.98306654 23.18873342 65.21222847 23.18673706 67.44139099 C23.17913011 73.28570144 23.15950698 79.12991123 23.1373291 84.97418213 C23.11680721 90.94696695 23.10772181 96.91976815 23.09765625 102.89257812 C23.0762582 114.59510325 23.04110013 126.29752747 23 138 C12.77 138 2.54 138 -8 138 C-10 129 -10 129 -10 125 C-14.10917812 127.2857628 -18.015906 129.66236226 -21.88037109 132.34985352 C-34.85843753 141.22353581 -49.06037086 144.21979904 -64.55078125 141.33984375 C-71.88705098 139.34844738 -78.35766329 136.17108059 -84 131 C-84 130.34 -84 129.68 -84 129 C-84.66 129 -85.32 129 -86 129 C-87.65625 126.65625 -87.65625 126.65625 -89.5 123.5 C-90.41265625 121.96859375 -90.41265625 121.96859375 -91.34375 120.40625 C-96.55607717 109.68655826 -96.825538 95.85980239 -93.5 84.5 C-90.64255784 77.16249673 -85.64801003 70.33505654 -79 66 C-78.34 66 -77.68 66 -77 66 C-77 65.34 -77 64.68 -77 64 C-74.35717516 62.72258409 -71.71101413 61.45302433 -69.0625 60.1875 C-68.32708984 59.83107422 -67.59167969 59.47464844 -66.83398438 59.10742188 C-58.5727347 55.17521133 -50.348143 52.66432681 -41.375 50.9375 C-40.51487305 50.76831055 -39.65474609 50.59912109 -38.76855469 50.42480469 C-31.21340757 48.97199944 -23.64232141 47.88002489 -16 47 C-15.84578026 42.73839463 -15.75595966 39.56335608 -17.875 35.8125 C-18.22304687 35.17957031 -18.57109375 34.54664063 -18.9296875 33.89453125 C-19.28289062 33.26933594 -19.63609375 32.64414063 -20 32 C-20.44279297 30.94619141 -20.44279297 30.94619141 -20.89453125 29.87109375 C-22.68160875 26.846323 -25.00395285 26.48340835 -28.26171875 25.54296875 C-42.8866442 22.6430192 -56.60973349 27.09855354 -69.16552734 34.35742188 C-73.73758713 37 -73.73758713 37 -77 37 C-77 36.34 -77 35.68 -77 35 C-77.66 35 -78.32 35 -79 35 C-80.46413471 32.29466468 -81.92140832 29.58599307 -83.375 26.875 C-83.7875 26.11445313 -84.2 25.35390625 -84.625 24.5703125 C-86.82502206 20.4541422 -88.69018349 16.50519306 -90 12 C-77.48842215 1.47941464 -60.79086754 -3.10761337 -45 -6 C-44.02289062 -6.18691406 -43.04578125 -6.37382812 -42.0390625 -6.56640625 C-27.12822671 -8.69378771 -13.51772878 -6.27951231 0 0 Z M-53.12109375 83.8671875 C-56.48037328 87.62120251 -58.83308105 91.23065911 -59.3125 96.3125 C-58.95261919 100.55909353 -58.10046015 103.28918706 -56 107 C-50.09889942 111.87482221 -44.48730098 112.55832646 -37 112 C-31.68426122 110.8808971 -27.53596234 108.85827764 -23 106 C-22.41476562 105.64421875 -21.82953125 105.2884375 -21.2265625 104.921875 C-19.7768481 104.0098481 -18.38222996 103.01138778 -17 102 C-17 101.34 -17 100.68 -17 100 C-16.34 100 -15.68 100 -15 100 C-15 90.43 -15 80.86 -15 71 C-27.81662879 71 -43.39394617 75.30443144 -53.12109375 83.8671875 Z " fill="#1B653B" transform="translate(1115,188)"/>
<path d="M0 0 C0 0.66 0 1.32 0 2 C0.556875 2.226875 1.11375 2.45375 1.6875 2.6875 C7.92688219 6.22877097 10.89316294 11.80663201 14 18 C14.37382813 18.72445312 14.74765625 19.44890625 15.1328125 20.1953125 C19.44780236 29.1129582 20.30736324 38.45147693 20.22705078 48.24487305 C20.22734283 49.20232925 20.22763489 50.15978546 20.22793579 51.14625549 C20.22655759 54.26817322 20.21106841 57.38984343 20.1953125 60.51171875 C20.19157699 62.69318003 20.18873256 64.874643 20.18673706 67.05610657 C20.17914296 72.76558152 20.15953118 78.47495286 20.1373291 84.18438721 C20.11677922 90.02330118 20.10771588 95.86223208 20.09765625 101.70117188 C20.07628093 113.13416716 20.04113366 124.56705871 20 136 C9.77 136 -0.46 136 -11 136 C-13.25 127 -13.25 127 -13 122 C-13.48210937 122.3609375 -13.96421875 122.721875 -14.4609375 123.09375 C-15.09257813 123.5578125 -15.72421875 124.021875 -16.375 124.5 C-17.00148438 124.9640625 -17.62796875 125.428125 -18.2734375 125.90625 C-20 127 -20 127 -22 127 C-22 127.66 -22 128.32 -22 129 C-24.64738916 130.4606285 -25.89448334 131 -29 131 C-29 131.66 -29 132.32 -29 133 C-42.43052235 139.46837657 -56.12356995 142.70151239 -70.9609375 138.77734375 C-74.87491602 137.28523317 -78.44689613 135.20074046 -82 133 C-82 132.34 -82 131.68 -82 131 C-83.65 130.34 -85.3 129.68 -87 129 C-87 128.34 -87 127.68 -87 127 C-87.66 127 -88.32 127 -89 127 C-90.65625 124.62109375 -90.65625 124.62109375 -92.5 121.4375 C-93.41265625 119.88869141 -93.41265625 119.88869141 -94.34375 118.30859375 C-97.73138255 111.54131835 -98.34034377 105.48564999 -98.3125 98.0625 C-98.33666992 96.77956055 -98.33666992 96.77956055 -98.36132812 95.47070312 C-98.36766761 87.15963738 -96.00838173 81.11562918 -91.5625 74.125 C-90.98628906 73.19945312 -90.41007812 72.27390625 -89.81640625 71.3203125 C-87.98564697 68.98166516 -86.73900535 68.0474438 -84 67 C-84 66.34 -84 65.68 -84 65 C-67.28317452 50.46863106 -40.18546484 47.40671947 -19 45 C-19.11509661 43.58249437 -19.24253658 42.16598831 -19.375 40.75 C-19.47941406 39.56664062 -19.47941406 39.56664062 -19.5859375 38.359375 C-20.01673834 35.90462303 -20.87909948 34.20534899 -22 32 C-22 31.01 -22 30.02 -22 29 C-22.66 29 -23.32 29 -24 29 C-25.00692976 28.00697811 -26.00613856 27.00610111 -27 26 C-37.16046969 20.91976516 -47.78518766 22.31423947 -58.359375 25.57421875 C-63.15570573 27.45261008 -67.60406047 29.8109391 -72.02685547 32.4453125 C-76.43314744 35.00775183 -76.43314744 35.00775183 -79.28515625 34.96875 C-81.54166373 33.69400318 -82.16390289 32.50557781 -83.3125 30.1875 C-85.86504742 25.21003253 -88.72130392 20.46738272 -91.64453125 15.69921875 C-93 13 -93 13 -93 9 C-92.19175781 8.60167969 -91.38351562 8.20335937 -90.55078125 7.79296875 C-89.48214844 7.26316406 -88.41351562 6.73335937 -87.3125 6.1875 C-86.25675781 5.66542969 -85.20101563 5.14335937 -84.11328125 4.60546875 C-82.19949015 3.61855765 -80.31049737 2.57905172 -78.47265625 1.45703125 C-69.09066505 -4.07137747 -58.592871 -6.20418682 -48 -8 C-47.01128906 -8.18691406 -46.02257813 -8.37382812 -45.00390625 -8.56640625 C-30.18248282 -10.70577946 -12.44438712 -9.12588389 0 0 Z M-56.76953125 82.546875 C-60.83956696 87.02320149 -62.55588462 91.0506857 -62.28125 97.046875 C-61.60054232 101.77401164 -59.79347679 104.36176867 -56.125 107.3125 C-49.53097997 110.87327082 -42.43041765 110.77980695 -35.25 109.0625 C-33.48259781 108.42105964 -31.73337071 107.72841077 -30 107 C-28.36417969 106.41412109 -28.36417969 106.41412109 -26.6953125 105.81640625 C-22.70371801 103.78304105 -19.88573185 102.09662112 -18 98 C-16.46851611 88.48169926 -17.27661758 78.5699784 -18 69 C-31.17713542 69 -46.97792102 73.54246052 -56.76953125 82.546875 Z " fill="#1B663B" transform="translate(1458,190)"/>
<path d="M0 0 C10.23 0 20.46 0 31 0 C31 12.54 31 25.08 31 38 C42.55 38 54.1 38 66 38 C66 47.9 66 57.8 66 68 C54.45 68 42.9 68 31 68 C31.09116891 79.08221963 31.09116891 79.08221963 31.20898438 90.1640625 C31.26302599 94.69300124 31.31414432 99.22182369 31.34643555 103.75097656 C31.37270912 107.40814136 31.41327457 111.06490883 31.46318626 114.72182465 C31.47969434 116.10739903 31.49130745 117.49304188 31.49761391 118.87870026 C31.54180541 127.70722015 32.49071921 135.53621759 35 144 C35.14500443 144.74485657 35.29000885 145.48971313 35.43940735 146.25714111 C35.62440292 146.83228455 35.8093985 147.40742798 36 148 C38.45704762 149.23290201 38.45704762 149.23290201 41 150 C41.33 150.33 41.66 150.66 42 151 C44.57342064 151.10091846 47.11428381 151.1386752 49.6875 151.125 C50.39583984 151.12886719 51.10417969 151.13273438 51.83398438 151.13671875 C55.99710733 151.12903062 59.89906912 150.81372802 64 150 C66.03032203 154.53621498 67.06628706 159.16913206 68.125 164 C68.30675781 164.7940625 68.48851562 165.588125 68.67578125 166.40625 C69.54658643 170.33469443 70.24506516 173.94825598 70 178 C53.07745555 184.13135668 33.42987569 186.29052394 16.5 178.91015625 C14.63584751 178.00073464 12.81149061 177.01025438 11 176 C11 175.34 11 174.68 11 174 C10.236875 173.74863281 9.47375 173.49726563 8.6875 173.23828125 C1.60944912 169.97702816 -1.19196387 160.69200996 -3.921875 153.89453125 C-7.37632916 142.8906582 -7.28024243 131.16400404 -7.1953125 119.7578125 C-7.19157005 118.25324697 -7.18872893 116.74867897 -7.18673706 115.24411011 C-7.17919738 111.33482822 -7.15963536 107.42570127 -7.1373291 103.51647949 C-7.11665904 99.50710138 -7.10769069 95.49769759 -7.09765625 91.48828125 C-7.07637752 83.65877624 -7.04127771 75.8294298 -7 68 C-13.6 68 -20.2 68 -27 68 C-27 58.76 -27 49.52 -27 40 C-20.71471637 36.85735819 -11.86485718 37.88451642 -5 38 C-4.95101563 37.41476563 -4.90203125 36.82953125 -4.8515625 36.2265625 C-4.31827515 30.10295257 -3.7106499 23.98739603 -3.0625 17.875 C-2.95059326 16.76632568 -2.95059326 16.76632568 -2.83642578 15.63525391 C-2.25264769 10.2427679 -1.19295213 5.36828457 0 0 Z " fill="#1B663B" transform="translate(1187,147)"/>
<path d="M0 0 C12.54 0 25.08 0 38 0 C38 56.1 38 112.2 38 170 C38.66 170 39.32 170 40 170 C40 170.66 40 171.32 40 172 C40.93972656 172.07347656 40.93972656 172.07347656 41.8984375 172.1484375 C42.71570312 172.22320312 43.53296875 172.29796875 44.375 172.375 C45.18710938 172.44460938 45.99921875 172.51421875 46.8359375 172.5859375 C49 173 49 173 51 175 C52.03704867 179.27762353 52.59417703 183.64939973 53.25 188 C53.54777344 189.82144531 53.54777344 189.82144531 53.8515625 191.6796875 C54.02945312 192.83726562 54.20734375 193.99484375 54.390625 195.1875 C54.55594727 196.25355469 54.72126953 197.31960938 54.89160156 198.41796875 C54.92737305 199.27003906 54.96314453 200.12210938 55 201 C50.804537 205.195463 44.03309467 205.2574413 38.3527832 205.32910156 C37.59698975 205.32362305 36.84119629 205.31814453 36.0625 205.3125 C34.87563599 205.30621582 34.87563599 205.30621582 33.66479492 205.29980469 C24.80757723 205.12812133 18.47772818 202.61391739 11 198 C11 197.34 11 196.68 11 196 C10.34 196 9.68 196 9 196 C1.06060576 183.40760012 -0.58983545 171.10142944 -0.45410156 156.55151367 C-0.45297076 154.83533251 -0.45361149 153.11914941 -0.45587158 151.40296936 C-0.45701057 146.78387839 -0.43363472 142.16521019 -0.40557575 137.54621673 C-0.38042483 132.70428011 -0.37820937 127.86233183 -0.37347412 123.02033997 C-0.36108434 113.86919435 -0.32831728 104.71824184 -0.28807616 95.56718093 C-0.24323346 85.14147034 -0.22134009 74.7157501 -0.20129442 64.28996694 C-0.15958072 42.85984653 -0.08627878 21.42999053 0 0 Z " fill="#1B653B" transform="translate(1520,125)"/>
<path d="M0 0 C12.21 0 24.42 0 37 0 C37.33 56.1 37.66 112.2 38 170 C38.66 170 39.32 170 40 170 C40 170.66 40 171.32 40 172 C41.27875 172.165 42.5575 172.33 43.875 172.5 C44.59429688 172.5928125 45.31359375 172.685625 46.0546875 172.78125 C48.00498344 173.0372485 48.00498344 173.0372485 50 173 C51.35862026 179.47957357 52.58608667 185.98286261 53.75 192.5 C53.90186768 193.30163574 54.05373535 194.10327148 54.21020508 194.92919922 C54.56069434 196.93952848 54.79030467 198.97014919 55 201 C49.7207768 206.2792232 39.79581622 205.3716397 32.74951172 205.37670898 C24.67849594 205.19591419 17.22158395 203.41192577 11 198 C11 197.34 11 196.68 11 196 C10.01 195.67 9.02 195.34 8 195 C6.46484375 192.59375 6.46484375 192.59375 4.9375 189.5 C4.17759766 187.99953125 4.17759766 187.99953125 3.40234375 186.46875 C-0.51202791 176.78640451 -0.27440189 167.25186661 -0.22705078 157.00561523 C-0.22648594 155.29002387 -0.22680464 153.57443203 -0.22793579 151.85884094 C-0.22850747 147.22311527 -0.21678309 142.58749398 -0.20278788 137.95179248 C-0.19024971 133.09913846 -0.18910759 128.24648181 -0.18673706 123.39381409 C-0.18053135 114.21427212 -0.16413285 105.03477802 -0.14403808 95.85525709 C-0.12165077 85.40059864 -0.11067853 74.94593784 -0.10064721 64.49126136 C-0.0797658 42.99414162 -0.04310093 21.49708747 0 0 Z " fill="#1B653C" transform="translate(1988,125)"/>
<path d="M0 0 C12.54 0 25.08 0 38 0 C38 46.53 38 93.06 38 141 C25.46 141 12.92 141 0 141 C0 94.47 0 47.94 0 0 Z " fill="#1B663B" transform="translate(1285,185)"/>
<path d="M0 0 C4.00172967 3.69674797 6.34839824 7.05260482 7.09765625 12.53515625 C7.36064648 21.37820277 4.89592341 26.36357754 -0.61328125 33.046875 C-4.89965619 36.8789337 -9.74447481 36.90054141 -15.24609375 36.875 C-16.2815332 36.89916992 -16.2815332 36.89916992 -17.33789062 36.92382812 C-23.47419715 36.92964453 -27.37532442 35.26561822 -31.93359375 31.25 C-32.71734375 30.363125 -33.50109375 29.47625 -34.30859375 28.5625 C-35.07171875 27.7375 -35.83484375 26.9125 -36.62109375 26.0625 C-39.25194539 20.60591882 -39.23902158 15.50019209 -38.30859375 9.5625 C-35.66759007 3.10463941 -31.66426523 -0.7614278 -25.30859375 -3.4375 C-17.02184677 -5.54980805 -7.056186 -5.18533919 0 0 Z " fill="#1B653B" transform="translate(1320.30859375,126.4375)"/>
</svg>
